<svg width="638" height="678" viewBox="0 0 638 678" fill="none" xmlns="http://www.w3.org/2000/svg">
<g opacity="0.02">
<path d="M328.605 467.316C328.605 467.316 427.991 491.673 506.724 430.079C585.457 368.486 582.986 275.601 582.986 275.601C582.986 275.601 493.9 247.992 412.984 306.73C332.068 365.468 328.605 467.316 328.605 467.316Z" fill="white"/>
<path d="M328.28 513.768C328.28 513.768 344.514 583.445 408.168 613.011C471.822 642.578 529.451 611.592 529.451 611.592C529.451 611.592 518.629 547.304 455.985 515.456C393.341 483.608 328.28 513.768 328.28 513.768Z" fill="white"/>
<path d="M478.045 483.608C478.045 483.608 512.406 521.653 562.55 518.204C612.694 514.756 638 475.489 638 475.489C638 475.489 608.834 438.989 558.636 440.642C508.438 442.294 478.045 483.608 478.045 483.608Z" fill="white"/>
<path d="M427.792 243.466C427.792 243.466 374.817 156.257 275.395 144.366C175.973 132.474 111.778 199.906 111.778 199.906C111.778 199.906 155.175 282.157 254.092 297.605C353.009 313.053 427.792 243.466 427.792 243.466Z" fill="white"/>
<path d="M460.981 210.846C460.981 210.846 499.004 150.168 474.96 84.4244C450.916 18.6812 388.182 0 388.182 0C388.182 0 350.304 53.1335 371.949 119.703C393.594 186.273 460.981 210.846 460.981 210.846Z" fill="white"/>
<path d="M333.692 126.726C333.692 126.726 336.397 75.6227 298.483 42.7331C260.568 9.84344 214.825 19.8128 214.825 19.8128C214.825 19.8128 209.522 66.1563 246.228 100.375C282.934 134.594 333.692 126.726 333.692 126.726Z" fill="white"/>
<path d="M244.533 363.312C244.533 363.312 156.907 416.069 144.985 515.079C133.062 614.089 200.738 678 200.738 678C200.738 678 283.331 634.89 298.843 536.293C314.356 437.696 244.533 363.312 244.533 363.312Z" fill="white"/>
<path d="M211.723 330.207C211.723 330.207 150.738 292.36 84.7757 316.304C18.813 340.248 0 402.722 0 402.722C0 402.722 53.3545 440.444 120.201 418.889C187.048 397.334 211.723 330.207 211.723 330.207Z" fill="white"/>
<path d="M127.29 457.024C127.29 457.024 75.9736 454.311 42.9652 492.069C9.95677 529.826 19.8954 575.398 19.8954 575.398C19.8954 575.398 66.4498 580.679 100.811 544.125C135.172 507.571 127.29 457.024 127.29 457.024Z" fill="white"/>
</g>
</svg>
