<svg id="svg" version="1.1" xmlns="http://www.w3.org/2000/svg" xmlns:xlink="http://www.w3.org/1999/xlink" width="45" height="45" viewBox="0, 0, 400,400"><g id="svgg"><path id="path0" d="M244.261 110.758 C 234.900 127.959,241.181 150.184,258.383 160.727 C 263.254 163.711,263.434 163.613,265.747 156.720 C 271.657 139.111,266.082 121.681,251.351 111.707 C 246.206 108.224,245.679 108.153,244.261 110.758 M201.067 110.267 C 200.511 110.823,200.833 115.795,201.641 119.129 C 204.583 131.267,214.244 139.246,227.654 140.613 C 232.251 141.081,232.487 140.757,231.557 135.233 C 229.393 122.374,221.011 113.232,209.138 110.782 C 205.397 110.010,201.568 109.765,201.067 110.267 M203.000 144.262 C 193.015 145.448,183.368 149.414,175.100 155.731 C 171.202 158.710,171.196 158.336,175.220 163.600 C 183.374 174.268,196.009 182.525,207.600 184.762 C 208.810 184.995,210.754 185.370,211.920 185.593 C 224.137 187.938,242.303 182.267,253.454 172.628 L 254.996 171.295 252.998 168.371 C 241.571 151.648,221.659 142.047,203.000 144.262 M271.000 178.600 C 251.241 182.222,236.266 198.462,231.371 221.575 C 229.595 229.965,229.526 229.838,236.088 230.266 C 259.392 231.785,280.543 217.671,287.739 195.800 C 289.602 190.138,291.204 180.775,290.492 179.709 C 289.493 178.214,276.987 177.502,271.000 178.600 M173.841 188.870 C 159.327 190.185,146.472 199.244,139.712 212.923 C 138.008 216.371,138.004 216.363,142.166 218.151 C 163.493 227.313,186.430 219.138,197.752 198.340 C 199.816 194.548,199.740 194.209,196.500 192.754 C 189.482 189.601,181.282 188.196,173.841 188.870 M206.131 204.662 C 184.698 220.887,175.990 245.165,183.270 268.400 C 184.909 273.631,189.539 281.326,193.712 285.752 L 196.305 288.504 198.203 287.198 C 203.166 283.783,211.430 274.660,215.048 268.600 C 227.238 248.187,225.328 223.680,210.084 204.900 C 208.415 202.844,208.523 202.851,206.131 204.662 M282.800 220.285 C 278.040 221.120,271.565 225.215,268.224 229.503 C 266.448 231.783,266.428 231.604,268.696 233.601 C 278.286 242.043,292.032 240.469,300.514 229.959 C 302.439 227.573,302.397 227.209,299.946 225.065 C 295.200 220.913,289.025 219.192,282.800 220.285 M171.400 230.285 C 162.791 231.469,153.247 237.492,148.717 244.600 C 145.503 249.643,144.405 253.199,144.117 259.494 C 143.839 265.563,143.853 265.587,147.493 265.111 C 163.308 263.041,174.161 252.299,176.031 236.864 C 176.860 230.027,176.544 229.577,171.400 230.285 M242.200 237.788 C 235.838 238.961,230.400 241.069,230.400 242.363 C 230.400 244.213,233.074 250.041,235.739 254.000 C 244.690 267.296,260.508 271.255,275.499 263.952 C 278.468 262.505,278.512 262.305,276.875 257.678 C 271.651 242.918,257.722 234.927,242.200 237.788 " stroke="none" fill="#263d7d" fill-rule="evenodd"></path><path id="path1" d="M115.200 32.000 C 115.200 32.220,114.401 32.400,113.424 32.400 C 112.447 32.400,111.536 32.580,111.400 32.800 C 111.264 33.020,110.803 33.200,110.376 33.200 C 109.949 33.200,109.600 33.380,109.600 33.600 C 109.600 33.820,109.190 34.000,108.688 34.000 C 108.187 34.000,107.517 34.360,107.200 34.800 C 106.883 35.240,106.343 35.600,106.000 35.600 C 105.657 35.600,105.117 35.960,104.800 36.400 C 104.483 36.840,103.980 37.200,103.683 37.200 C 102.951 37.200,102.000 38.200,102.000 38.971 C 102.000 39.333,101.661 39.600,101.200 39.600 C 100.667 39.600,100.400 39.867,100.400 40.400 C 100.400 40.906,100.133 41.200,99.675 41.200 C 99.217 41.200,98.747 41.717,98.400 42.600 C 98.098 43.370,97.704 44.000,97.525 44.000 C 97.346 44.000,97.200 44.320,97.200 44.712 C 97.200 45.103,96.840 45.683,96.400 46.000 C 95.960 46.317,95.600 46.989,95.600 47.494 C 95.600 47.998,95.392 48.813,95.138 49.305 C 94.883 49.797,94.523 50.513,94.338 50.895 C 94.152 51.277,94.000 52.582,94.000 53.795 C 94.000 55.008,93.820 56.000,93.600 56.000 C 93.045 56.000,93.045 340.657,93.600 341.000 C 93.820 341.136,94.000 342.407,94.000 343.824 C 94.000 345.275,94.175 346.400,94.400 346.400 C 94.620 346.400,94.800 346.760,94.800 347.200 C 94.800 347.640,94.980 348.000,95.200 348.000 C 95.420 348.000,95.600 348.500,95.600 349.112 C 95.600 349.765,95.930 350.461,96.400 350.800 C 96.841 351.118,97.200 351.835,97.200 352.400 C 97.200 352.965,97.559 353.682,98.000 354.000 C 98.440 354.317,98.800 354.795,98.800 355.061 C 98.800 355.328,99.160 355.660,99.600 355.800 C 100.040 355.940,100.400 356.300,100.400 356.600 C 100.400 356.900,100.760 357.260,101.200 357.400 C 101.640 357.540,102.000 357.912,102.000 358.227 C 102.000 358.542,102.360 358.800,102.800 358.800 C 103.333 358.800,103.600 359.067,103.600 359.600 C 103.600 360.133,103.867 360.400,104.400 360.400 C 104.840 360.400,105.200 360.580,105.200 360.800 C 105.200 361.020,105.520 361.200,105.912 361.200 C 106.303 361.200,106.883 361.560,107.200 362.000 C 107.517 362.440,108.097 362.800,108.488 362.800 C 108.880 362.800,109.200 362.980,109.200 363.200 C 109.200 363.420,109.560 363.600,110.000 363.600 C 110.440 363.600,110.800 363.780,110.800 364.000 C 110.800 364.220,111.430 364.400,112.200 364.400 C 112.970 364.400,113.600 364.580,113.600 364.800 C 113.600 365.020,114.399 365.200,115.376 365.200 C 116.353 365.200,117.264 365.380,117.400 365.600 C 117.537 365.821,119.337 366.000,121.424 366.000 C 123.675 366.000,125.200 365.838,125.200 365.600 C 125.200 365.380,126.100 365.200,127.200 365.200 C 128.300 365.200,129.200 365.020,129.200 364.800 C 129.200 364.560,130.800 364.400,133.200 364.400 C 135.600 364.400,137.200 364.240,137.200 364.000 C 137.200 363.780,137.999 363.600,138.976 363.600 C 139.953 363.600,140.864 363.420,141.000 363.200 C 141.136 362.980,142.767 362.800,144.624 362.800 C 146.608 362.800,148.000 362.635,148.000 362.400 C 148.000 362.180,148.900 362.000,150.000 362.000 C 151.100 362.000,152.000 361.845,152.000 361.655 C 152.000 361.314,154.466 360.988,160.500 360.532 C 162.205 360.403,163.600 360.140,163.600 359.949 C 163.600 359.757,164.320 359.600,165.200 359.600 C 166.080 359.600,166.800 359.446,166.800 359.258 C 166.800 359.070,169.005 358.817,171.700 358.696 C 174.395 358.575,177.107 358.279,177.726 358.038 C 178.345 357.797,180.270 357.600,182.002 357.600 C 183.735 357.600,185.264 357.420,185.400 357.200 C 185.536 356.980,186.436 356.800,187.400 356.800 C 188.364 356.800,189.264 356.620,189.400 356.400 C 189.536 356.180,191.167 356.000,193.024 356.000 C 195.008 356.000,196.400 355.835,196.400 355.600 C 196.400 355.380,197.300 355.200,198.400 355.200 C 199.500 355.200,200.400 355.020,200.400 354.800 C 200.400 354.561,201.933 354.400,204.200 354.400 C 206.467 354.400,208.000 354.239,208.000 354.000 C 208.000 353.780,208.720 353.600,209.600 353.600 C 210.480 353.600,211.200 353.420,211.200 353.200 C 211.200 352.962,212.725 352.800,214.976 352.800 C 217.063 352.800,218.863 352.621,219.000 352.400 C 219.136 352.180,220.036 352.000,221.000 352.000 C 221.964 352.000,222.864 351.820,223.000 351.600 C 223.136 351.380,224.767 351.200,226.624 351.200 C 228.608 351.200,230.000 351.035,230.000 350.800 C 230.000 350.580,230.900 350.400,232.000 350.400 C 233.100 350.400,234.000 350.220,234.000 350.000 C 234.000 349.761,235.533 349.600,237.800 349.600 C 240.067 349.600,241.600 349.439,241.600 349.200 C 241.600 348.980,242.500 348.800,243.600 348.800 C 244.700 348.800,245.600 348.645,245.600 348.455 C 245.600 348.130,246.733 347.979,253.900 347.342 C 255.495 347.200,256.800 346.931,256.800 346.742 C 256.800 346.554,257.610 346.400,258.600 346.400 C 259.590 346.400,260.400 346.220,260.400 346.000 C 260.400 345.763,261.859 345.600,263.976 345.600 C 265.943 345.600,267.664 345.420,267.800 345.200 C 267.936 344.980,268.847 344.800,269.824 344.800 C 270.801 344.800,271.600 344.620,271.600 344.400 C 271.600 344.161,273.133 344.000,275.400 344.000 C 277.667 344.000,279.200 343.839,279.200 343.600 C 279.200 343.380,280.100 343.200,281.200 343.200 C 282.300 343.200,283.200 343.020,283.200 342.800 C 283.200 342.563,284.656 342.400,286.767 342.400 C 288.808 342.400,290.391 342.228,290.468 341.997 C 290.543 341.772,292.873 341.478,295.716 341.334 C 298.529 341.192,300.924 340.923,301.039 340.738 C 301.153 340.552,302.011 340.400,302.944 340.400 C 303.877 340.400,304.811 340.233,305.020 340.028 C 305.229 339.824,306.930 339.569,308.800 339.462 C 312.923 339.227,315.200 338.834,315.200 338.356 C 315.200 338.160,315.740 338.000,316.400 338.000 C 317.060 338.000,317.600 337.820,317.600 337.600 C 317.600 337.380,317.960 337.200,318.400 337.200 C 318.840 337.200,319.200 337.020,319.200 336.800 C 319.200 336.580,319.443 336.400,319.741 336.400 C 320.038 336.400,320.846 335.860,321.537 335.200 C 322.228 334.540,322.915 334.000,323.065 334.000 C 323.503 334.000,326.800 330.428,326.800 329.953 C 326.800 329.716,327.340 329.017,328.000 328.400 C 328.660 327.783,329.200 326.991,329.200 326.640 C 329.200 326.288,329.380 326.000,329.600 326.000 C 329.820 326.000,330.000 325.640,330.000 325.200 C 330.000 324.760,330.180 324.400,330.400 324.400 C 330.620 324.400,330.800 323.950,330.800 323.400 C 330.800 322.850,330.980 322.400,331.200 322.400 C 331.420 322.400,331.600 322.040,331.600 321.600 C 331.600 321.160,331.780 320.800,332.000 320.800 C 332.220 320.800,332.400 320.080,332.400 319.200 C 332.400 318.320,332.580 317.600,332.800 317.600 C 333.020 317.600,333.200 316.880,333.200 316.000 C 333.200 315.120,333.380 314.400,333.600 314.400 C 333.862 314.400,334.000 306.333,334.000 291.000 L 334.000 267.600 335.000 267.600 C 335.550 267.600,336.000 267.420,336.000 267.200 C 336.000 266.971,337.200 266.800,338.800 266.800 L 341.600 266.800 341.600 251.600 L 341.600 236.400 337.800 236.400 L 334.000 236.400 334.000 198.000 L 334.000 159.600 337.800 159.600 L 341.600 159.600 341.600 144.800 L 341.600 130.000 337.800 130.000 L 334.000 130.000 334.000 106.600 C 334.000 91.267,333.862 83.200,333.600 83.200 C 333.380 83.200,333.200 82.480,333.200 81.600 C 333.200 80.720,333.020 80.000,332.800 80.000 C 332.580 80.000,332.400 79.316,332.400 78.480 C 332.400 76.937,331.648 74.809,331.100 74.803 C 330.935 74.801,330.800 74.300,330.800 73.688 C 330.800 73.035,330.470 72.339,330.000 72.000 C 329.530 71.661,329.200 70.965,329.200 70.312 C 329.200 69.467,329.008 69.200,328.400 69.200 C 327.900 69.200,327.600 68.933,327.600 68.488 C 327.600 68.097,327.240 67.517,326.800 67.200 C 326.360 66.883,326.000 66.399,326.000 66.125 C 326.000 65.540,323.569 62.800,323.050 62.800 C 322.854 62.800,322.403 62.471,322.047 62.068 C 320.643 60.480,316.925 58.861,314.024 58.575 C 312.471 58.422,311.200 58.140,311.200 57.948 C 311.200 57.757,309.670 57.600,307.800 57.600 C 305.800 57.600,304.400 57.435,304.400 57.200 C 304.400 56.980,303.500 56.800,302.400 56.800 C 301.300 56.800,300.400 56.620,300.400 56.400 C 300.400 56.160,298.800 56.000,296.400 56.000 C 294.000 56.000,292.400 55.840,292.400 55.600 C 292.400 55.380,291.781 55.200,291.024 55.200 C 290.267 55.200,289.536 55.020,289.400 54.800 C 289.263 54.579,287.463 54.400,285.376 54.400 C 283.125 54.400,281.600 54.238,281.600 54.000 C 281.600 53.780,280.700 53.600,279.600 53.600 C 278.500 53.600,277.600 53.444,277.600 53.254 C 277.600 52.930,276.140 52.743,268.900 52.137 C 267.305 52.004,266.000 51.757,266.000 51.588 C 266.000 51.204,263.247 50.811,258.700 50.547 C 256.775 50.435,255.200 50.176,255.200 49.972 C 255.200 49.767,254.300 49.600,253.200 49.600 C 252.100 49.600,251.200 49.420,251.200 49.200 C 251.200 48.963,249.733 48.800,247.600 48.800 C 245.467 48.800,244.000 48.637,244.000 48.400 C 244.000 48.180,243.201 48.000,242.224 48.000 C 241.247 48.000,240.336 47.820,240.200 47.600 C 240.064 47.380,238.433 47.200,236.576 47.200 C 234.592 47.200,233.200 47.035,233.200 46.800 C 233.200 46.580,232.300 46.400,231.200 46.400 C 230.100 46.400,229.200 46.220,229.200 46.000 C 229.200 45.761,227.667 45.600,225.400 45.600 C 223.310 45.600,221.600 45.438,221.600 45.240 C 221.600 44.796,218.958 44.411,214.100 44.147 C 212.065 44.036,210.400 43.777,210.400 43.573 C 210.400 43.368,209.601 43.200,208.624 43.200 C 207.647 43.200,206.736 43.020,206.600 42.800 C 206.464 42.580,204.935 42.400,203.202 42.400 C 201.470 42.400,199.545 42.204,198.926 41.964 C 198.307 41.725,195.685 41.428,193.100 41.305 C 190.515 41.183,188.400 40.929,188.400 40.741 C 188.400 40.554,187.590 40.400,186.600 40.400 C 185.610 40.400,184.800 40.256,184.800 40.081 C 184.800 39.906,182.235 39.526,179.100 39.237 C 175.965 38.949,173.340 38.552,173.267 38.356 C 173.193 38.160,172.349 38.000,171.390 38.000 C 170.432 38.000,169.536 37.820,169.400 37.600 C 169.264 37.380,167.543 37.200,165.576 37.200 C 163.459 37.200,162.000 37.037,162.000 36.800 C 162.000 36.580,161.100 36.400,160.000 36.400 C 158.900 36.400,158.000 36.220,158.000 36.000 C 158.000 35.761,156.467 35.600,154.200 35.600 C 151.933 35.600,150.400 35.439,150.400 35.200 C 150.400 34.980,149.500 34.800,148.400 34.800 C 147.300 34.800,146.400 34.620,146.400 34.400 C 146.400 34.165,145.000 34.000,143.000 34.000 C 141.000 34.000,139.600 33.835,139.600 33.600 C 139.600 33.380,138.700 33.200,137.600 33.200 C 136.500 33.200,135.600 33.020,135.600 32.800 C 135.600 32.563,134.133 32.400,132.000 32.400 C 129.867 32.400,128.400 32.237,128.400 32.000 C 128.400 31.749,125.933 31.600,121.800 31.600 C 117.667 31.600,115.200 31.749,115.200 32.000 M82.300 79.087 C 81.035 79.171,80.000 79.411,80.000 79.620 C 80.000 79.829,79.460 80.000,78.800 80.000 C 78.140 80.000,77.600 80.180,77.600 80.400 C 77.600 80.620,77.010 80.800,76.288 80.800 C 75.435 80.800,74.775 81.080,74.400 81.600 C 74.083 82.040,73.503 82.400,73.112 82.400 C 72.720 82.400,72.400 82.580,72.400 82.800 C 72.400 83.020,72.040 83.200,71.600 83.200 C 71.160 83.200,70.800 83.380,70.800 83.600 C 70.800 83.820,70.440 84.000,70.000 84.000 C 69.467 84.000,69.200 84.267,69.200 84.800 C 69.200 85.333,68.933 85.600,68.400 85.600 C 67.867 85.600,67.600 85.867,67.600 86.400 C 67.600 86.917,67.333 87.200,66.847 87.200 C 66.430 87.200,66.000 87.557,65.884 88.000 C 65.769 88.440,65.388 88.800,65.037 88.800 C 64.667 88.800,64.400 89.135,64.400 89.600 C 64.400 90.040,64.220 90.400,64.000 90.400 C 63.780 90.400,63.600 90.678,63.600 91.017 C 63.600 91.356,63.240 92.020,62.800 92.492 C 62.360 92.964,62.000 93.677,62.000 94.075 C 62.000 94.474,61.849 94.800,61.664 94.800 C 61.116 94.800,60.400 96.735,60.400 98.219 C 60.400 98.978,60.220 99.600,60.000 99.600 C 59.734 99.600,59.600 132.800,59.600 198.400 C 59.600 264.000,59.734 297.200,60.000 297.200 C 60.220 297.200,60.400 297.835,60.400 298.611 C 60.400 300.523,62.953 305.784,64.748 307.572 C 65.547 308.367,66.558 309.509,66.995 310.109 C 67.432 310.709,68.107 311.200,68.495 311.200 C 68.933 311.200,69.200 311.503,69.200 312.000 C 69.200 312.500,69.467 312.800,69.912 312.800 C 70.303 312.800,70.883 313.160,71.200 313.600 C 71.518 314.041,72.235 314.400,72.800 314.400 C 73.365 314.400,74.082 314.759,74.400 315.200 C 74.739 315.670,75.435 316.000,76.088 316.000 C 76.700 316.000,77.200 316.180,77.200 316.400 C 77.200 316.620,77.650 316.800,78.200 316.800 C 78.750 316.800,79.200 316.980,79.200 317.200 C 79.200 317.440,80.800 317.600,83.200 317.600 L 87.200 317.600 87.200 308.200 C 87.200 299.067,87.177 298.800,86.400 298.800 C 85.960 298.800,85.600 298.620,85.600 298.400 C 85.600 298.180,85.060 298.000,84.400 298.000 C 83.740 298.000,83.200 297.820,83.200 297.600 C 83.200 297.380,82.975 297.200,82.700 297.200 C 81.972 297.199,80.000 295.404,80.000 294.742 C 80.000 294.431,79.640 293.917,79.200 293.600 C 78.290 292.944,77.891 104.400,78.800 104.400 C 79.020 104.400,79.200 104.040,79.200 103.600 C 79.200 103.160,79.380 102.800,79.600 102.800 C 79.820 102.800,80.000 102.517,80.000 102.171 C 80.000 101.400,80.951 100.400,81.683 100.400 C 81.980 100.400,82.483 100.040,82.800 99.600 C 83.239 98.991,83.835 98.800,85.295 98.800 L 87.214 98.800 87.107 88.900 L 87.000 79.000 85.800 78.967 C 85.140 78.949,83.565 79.003,82.300 79.087 M247.720 109.458 C 264.659 118.162,272.122 137.726,265.747 156.720 C 263.434 163.613,263.254 163.711,258.383 160.727 C 241.181 150.184,234.900 127.959,244.261 110.758 C 245.426 108.619,245.808 108.475,247.720 109.458 M209.138 110.782 C 221.011 113.232,229.393 122.374,231.557 135.233 C 232.487 140.757,232.251 141.081,227.654 140.613 C 212.101 139.028,200.800 127.448,200.800 113.096 C 200.800 109.521,201.749 109.257,209.138 110.782 M215.400 144.417 C 230.064 146.521,244.237 155.550,252.998 168.371 L 254.996 171.295 253.454 172.628 C 242.303 182.267,224.137 187.938,211.920 185.593 C 210.754 185.370,208.810 184.995,207.600 184.762 C 196.009 182.525,183.374 174.268,175.220 163.600 C 171.196 158.336,171.202 158.710,175.100 155.731 C 186.915 146.703,201.936 142.486,215.400 144.417 M286.982 178.609 C 290.748 179.330,290.891 179.489,290.577 182.600 C 287.625 211.814,264.420 232.113,236.088 230.266 C 229.526 229.838,229.595 229.965,231.371 221.575 C 237.638 191.982,261.306 173.696,286.982 178.609 M184.431 189.219 C 190.674 190.090,199.200 193.325,199.200 194.823 C 199.200 195.964,196.824 200.271,194.068 204.127 C 182.305 220.581,161.137 226.301,142.166 218.151 C 138.004 216.363,138.008 216.371,139.712 212.923 C 148.265 195.617,165.357 186.557,184.431 189.219 M210.084 204.900 C 223.896 221.917,226.918 244.497,217.885 263.200 C 213.521 272.236,205.195 282.387,198.203 287.198 L 196.305 288.504 193.712 285.752 C 172.235 262.969,177.890 226.041,206.131 204.662 C 208.523 202.851,208.415 202.844,210.084 204.900 M291.786 220.613 C 295.799 221.658,302.000 225.833,302.000 227.490 C 302.000 228.709,298.884 232.167,295.383 234.834 C 287.538 240.811,276.297 240.291,268.696 233.601 C 266.428 231.604,266.448 231.783,268.224 229.503 C 273.943 222.162,283.659 218.496,291.786 220.613 M176.237 231.456 C 176.567 233.214,175.792 240.009,174.931 242.908 C 171.416 254.746,160.753 263.375,147.493 265.111 C 143.853 265.587,143.839 265.563,144.117 259.494 C 144.744 245.788,153.324 235.387,167.400 231.269 C 173.459 229.496,175.879 229.548,176.237 231.456 M253.539 237.618 C 264.353 239.373,273.039 246.840,276.875 257.678 C 278.512 262.305,278.468 262.505,275.499 263.952 C 257.366 272.786,238.538 264.921,231.261 245.472 C 229.979 242.044,230.066 241.703,232.500 240.632 C 238.983 237.778,247.237 236.595,253.539 237.618 " stroke="none" fill="#fbfbfb" fill-rule="evenodd"></path></g></svg>
