<svg width="18" height="18" viewBox="0 0 18 18" fill="none" xmlns="http://www.w3.org/2000/svg">
<path d="M15.783 8.99998C15.783 7.95098 16.429 7.12498 17.4 6.55698C17.224 5.97298 16.993 5.41198 16.708 4.88498C15.619 5.16998 14.738 4.74398 13.997 4.00198C13.256 3.26198 13.029 2.38098 13.314 1.29098C12.787 1.00598 12.226 0.772976 11.642 0.599976C11.074 1.56998 10.047 2.21498 9 2.21498C7.952 2.21498 6.926 1.56998 6.357 0.599976C5.772 0.772976 5.213 1.00598 4.686 1.29098C4.971 2.38098 4.745 3.26198 4.002 4.00198C3.262 4.74398 2.381 5.16998 1.291 4.88498C1.006 5.41198 0.774 5.97298 0.6 6.55698C1.57 7.12498 2.215 7.95098 2.215 8.99998C2.215 10.047 1.57 11.074 0.6 11.643C0.775 12.227 1.006 12.787 1.291 13.315C2.381 13.03 3.262 13.256 4.002 13.997C4.742 14.738 4.971 15.62 4.686 16.708C5.213 16.993 5.773 17.226 6.358 17.401C6.926 16.428 7.953 15.784 9.001 15.784C10.048 15.784 11.075 16.429 11.644 17.401C12.228 17.225 12.788 16.993 13.316 16.708C13.031 15.62 13.257 14.739 13.999 13.997C14.74 13.257 15.621 12.831 16.71 13.114C16.995 12.587 17.227 12.028 17.402 11.442C16.429 10.873 15.783 10.047 15.783 8.99998ZM9 12.652C6.982 12.652 5.347 11.017 5.347 8.99998C5.347 6.98198 6.983 5.34598 9 5.34598C11.017 5.34598 12.652 6.98298 12.652 8.99998C12.652 11.018 11.018 12.652 9 12.652Z" fill="#ADB2C5"/>
</svg>
