<svg width="849" height="570" viewBox="0 0 849 570" fill="none" xmlns="http://www.w3.org/2000/svg">
<path opacity="0.05" d="M87.528 550.92C138.167 591.185 622.108 562.947 678.489 510.656C713.556 478.133 703.5 495.5 734.348 478.987C773.071 458.259 763.061 448.429 734.348 441.631C705.636 434.833 791.252 403.459 727.04 390.386C662.899 377.327 526.445 421.196 463.094 441.563L462.882 441.631C354.385 458.945 234.224 428.558 198.725 441.631C163.225 454.704 195.07 466.731 163.747 488.171C132.424 509.61 36.8891 510.656 87.528 550.92Z" fill="white"/>
<path d="M92.528 524.92C143.167 565.185 627.108 536.947 683.489 484.656C718.556 452.133 708.5 469.5 739.348 452.987C778.071 432.259 768.061 422.429 739.348 415.631C710.636 408.833 796.252 377.459 732.04 364.386C667.899 351.327 531.445 395.196 468.094 415.563L467.882 415.631C359.385 432.945 239.224 402.558 203.725 415.631C168.225 428.704 200.07 440.731 168.747 462.171C137.424 483.61 41.8891 484.656 92.528 524.92Z" fill="white"/>
<path d="M194.221 457C194.221 457 168.258 370.23 199.091 306.366C212.032 279.562 216.331 249.474 210.346 220.387C207.488 206.581 203.35 193.062 197.985 180" stroke="#535461" stroke-width="2" stroke-miterlimit="10"/>
<path d="M216 140.342C216 151.024 196 182 196 182C196 182 176 151.024 176 140.342C176 135.213 178.107 130.293 181.858 126.665C185.609 123.038 190.696 121 196 121C201.304 121 206.391 123.038 210.142 126.665C213.893 130.293 216 135.213 216 140.342Z" fill="#6C63FF"/>
<path d="M246.04 198.684C240.511 207.602 209 223 209 223C209 223 209.571 186.697 215.101 177.779C216.416 175.659 218.119 173.83 220.111 172.397C222.104 170.964 224.348 169.954 226.714 169.426C229.081 168.897 231.524 168.86 233.904 169.317C236.285 169.774 238.555 170.716 240.587 172.088C242.618 173.461 244.371 175.238 245.745 177.317C247.118 179.397 248.086 181.738 248.592 184.208C249.098 186.677 249.134 189.227 248.696 191.711C248.258 194.195 247.356 196.564 246.04 198.684Z" fill="#6C63FF"/>
<path d="M246.39 299.471C236.746 304.137 200 300.918 200 300.918C200 300.918 219.109 270.634 228.771 265.942C233.398 263.749 238.74 263.398 243.635 264.968C248.53 266.537 252.58 269.899 254.904 274.321C257.228 278.744 257.637 283.868 256.043 288.579C254.448 293.289 250.978 297.204 246.39 299.471Z" fill="#6C63FF"/>
<path d="M228.121 374.827C219.695 381.141 184 384 184 384C184 384 197.15 350.22 205.567 343.905C207.568 342.368 209.849 341.249 212.28 340.612C214.71 339.975 217.241 339.834 219.726 340.195C222.21 340.557 224.6 341.415 226.755 342.72C228.91 344.025 230.788 345.75 232.281 347.795C233.774 349.841 234.851 352.167 235.451 354.638C236.05 357.109 236.16 359.676 235.774 362.19C235.388 364.704 234.514 367.116 233.201 369.285C231.889 371.454 230.165 373.338 228.13 374.827H228.121Z" fill="#6C63FF"/>
<path d="M168.656 225.627C176.141 233.179 211 241 211 241C211 241 202.464 205.028 194.979 197.475C191.379 193.881 186.557 191.914 181.565 192.003C176.574 192.092 171.819 194.23 168.34 197.95C164.862 201.671 162.942 206.67 163.001 211.856C163.06 217.042 165.093 221.993 168.656 225.627Z" fill="#6C63FF"/>
<path d="M148.88 314.414C158.468 319.185 195 315.893 195 315.893C195 315.893 175.94 284.901 166.352 280.129C164.069 278.969 161.576 278.267 159.017 278.062C156.457 277.858 153.882 278.156 151.44 278.94C148.998 279.723 146.737 280.976 144.788 282.626C142.839 284.276 141.24 286.291 140.084 288.554C138.927 290.817 138.236 293.284 138.051 295.812C137.865 298.34 138.189 300.879 139.002 303.284C139.816 305.688 141.104 307.909 142.791 309.819C144.479 311.73 146.533 313.291 148.835 314.414H148.88Z" fill="#6C63FF"/>
<path d="M142.427 403.19C150.749 409.254 186 412 186 412C186 412 173.014 379.557 164.7 373.493C160.702 370.648 155.727 369.472 150.854 370.22C145.982 370.968 141.605 373.579 138.673 377.487C135.741 381.395 134.489 386.285 135.19 391.097C135.892 395.909 138.489 400.254 142.418 403.19H142.427Z" fill="#6C63FF"/>
<path opacity="0.25" d="M216 140.342C216 151.024 196 182 196 182C196 182 176 151.024 176 140.342C176 135.213 178.107 130.293 181.858 126.665C185.609 123.038 190.696 121 196 121C201.304 121 206.391 123.038 210.142 126.665C213.893 130.293 216 135.213 216 140.342Z" fill="black"/>
<path opacity="0.25" d="M246.04 198.684C240.511 207.602 209 223 209 223C209 223 209.571 186.697 215.101 177.779C216.416 175.659 218.119 173.83 220.111 172.397C222.104 170.964 224.348 169.954 226.714 169.426C229.081 168.897 231.524 168.86 233.904 169.317C236.285 169.774 238.555 170.716 240.587 172.088C242.618 173.461 244.371 175.238 245.745 177.317C247.118 179.397 248.086 181.738 248.592 184.208C249.098 186.677 249.134 189.227 248.696 191.711C248.258 194.195 247.356 196.564 246.04 198.684Z" fill="black"/>
<path opacity="0.25" d="M246.39 299.471C236.746 304.137 200 300.918 200 300.918C200 300.918 219.109 270.634 228.771 265.942C233.398 263.749 238.74 263.398 243.635 264.968C248.53 266.537 252.58 269.899 254.904 274.321C257.228 278.744 257.637 283.868 256.043 288.579C254.448 293.289 250.978 297.204 246.39 299.471Z" fill="black"/>
<path opacity="0.25" d="M228.121 374.827C219.695 381.141 184 384 184 384C184 384 197.15 350.22 205.567 343.905C207.568 342.368 209.849 341.249 212.28 340.612C214.71 339.975 217.241 339.834 219.726 340.195C222.21 340.557 224.6 341.415 226.755 342.72C228.91 344.025 230.788 345.75 232.281 347.795C233.774 349.841 234.851 352.167 235.451 354.638C236.05 357.109 236.16 359.676 235.774 362.19C235.388 364.704 234.514 367.116 233.201 369.285C231.889 371.454 230.165 373.338 228.13 374.827H228.121Z" fill="black"/>
<path opacity="0.25" d="M168.656 225.627C176.141 233.179 211 241 211 241C211 241 202.464 205.028 194.979 197.475C191.379 193.881 186.557 191.914 181.565 192.003C176.574 192.092 171.819 194.23 168.34 197.95C164.862 201.671 162.942 206.67 163.001 211.856C163.06 217.042 165.093 221.993 168.656 225.627Z" fill="black"/>
<path opacity="0.25" d="M148.88 314.414C158.468 319.185 195 315.893 195 315.893C195 315.893 175.94 284.901 166.352 280.129C164.069 278.969 161.576 278.267 159.017 278.062C156.457 277.858 153.882 278.156 151.44 278.94C148.998 279.723 146.737 280.976 144.788 282.626C142.839 284.276 141.24 286.291 140.084 288.554C138.927 290.817 138.236 293.284 138.051 295.812C137.865 298.34 138.189 300.879 139.002 303.284C139.816 305.688 141.104 307.909 142.791 309.819C144.479 311.73 146.533 313.291 148.835 314.414H148.88Z" fill="black"/>
<path opacity="0.25" d="M142.427 403.19C150.749 409.254 186 412 186 412C186 412 173.014 379.557 164.7 373.493C160.702 370.648 155.727 369.472 150.854 370.22C145.982 370.968 141.605 373.579 138.673 377.487C135.741 381.395 134.489 386.285 135.19 391.097C135.892 395.909 138.489 400.254 142.418 403.19H142.427Z" fill="black"/>
<path d="M681.882 410C681.882 410 656.797 323.549 686.561 259.914C699.064 233.206 703.218 203.225 697.436 174.242C694.675 160.486 690.677 147.015 685.492 134" stroke="#535461" stroke-width="2" stroke-miterlimit="10"/>
<path d="M704 94.3425C704 105.024 685.5 136 685.5 136C685.5 136 667 105.024 667 94.3425C667 89.2125 668.949 84.2927 672.419 80.6653C675.888 77.0378 680.593 75 685.5 75C690.407 75 695.112 77.0378 698.581 80.6653C702.051 84.2927 704 89.2125 704 94.3425Z" fill="#6C63FF"/>
<path d="M736.744 151.684C730.662 160.602 696 176 696 176C696 176 696.628 139.697 702.711 130.779C704.158 128.659 706.03 126.83 708.222 125.397C710.414 123.964 712.882 122.954 715.486 122.426C718.089 121.897 720.776 121.86 723.395 122.317C726.013 122.774 728.511 123.716 730.746 125.088C732.98 126.461 734.908 128.238 736.419 130.317C737.93 132.397 738.994 134.738 739.551 137.208C740.108 139.677 740.147 142.227 739.666 144.711C739.184 147.195 738.191 149.564 736.744 151.684Z" fill="#6C63FF"/>
<path d="M735.792 252.428C726.272 257.173 690 253.899 690 253.899C690 253.899 708.924 223.075 718.444 218.33C720.717 217.104 723.217 216.343 725.795 216.092C728.372 215.841 730.974 216.105 733.446 216.868C735.918 217.632 738.21 218.879 740.184 220.536C742.159 222.193 743.776 224.226 744.94 226.514C746.104 228.801 746.791 231.297 746.959 233.852C747.128 236.408 746.775 238.97 745.921 241.388C745.068 243.806 743.731 246.029 741.991 247.926C740.251 249.822 738.142 251.353 735.792 252.428Z" fill="#6C63FF"/>
<path d="M716.862 328.055C708.294 334.212 672 337 672 337C672 337 685.371 304.06 693.93 297.903C695.962 296.379 698.286 295.265 700.766 294.626C703.247 293.987 705.834 293.835 708.375 294.18C710.916 294.525 713.362 295.359 715.567 296.634C717.773 297.909 719.695 299.598 721.221 301.604C722.746 303.61 723.845 305.892 724.452 308.316C725.059 310.739 725.163 313.257 724.757 315.72C724.351 318.183 723.444 320.543 722.088 322.661C720.732 324.779 718.956 326.613 716.862 328.055Z" fill="#6C63FF"/>
<path d="M657.724 178.973C665.197 186.355 700 194 700 194C700 194 691.478 158.854 684.03 151.428C682.252 149.671 680.151 148.288 677.847 147.357C675.544 146.426 673.082 145.965 670.603 146.002C668.125 146.039 665.677 146.571 663.401 147.57C661.125 148.568 659.064 150.013 657.337 151.822C655.61 153.63 654.249 155.767 653.334 158.111C652.419 160.454 651.966 162.958 652.002 165.479C652.038 168 652.562 170.489 653.543 172.804C654.525 175.12 655.946 177.216 657.724 178.973Z" fill="#6C63FF"/>
<path d="M636.844 268.414C646.439 273.185 683 269.893 683 269.893C683 269.893 663.961 238.9 654.374 234.129C652.09 232.969 649.594 232.266 647.033 232.062C644.472 231.858 641.895 232.156 639.45 232.94C637.006 233.723 634.744 234.976 632.793 236.626C630.843 238.276 629.243 240.291 628.085 242.554C626.928 244.817 626.237 247.284 626.051 249.812C625.865 252.34 626.189 254.879 627.003 257.283C627.817 259.688 629.106 261.909 630.795 263.819C632.484 265.73 634.54 267.291 636.844 268.414Z" fill="#6C63FF"/>
<path d="M628.573 356.19C637.057 362.254 673 365 673 365C673 365 659.759 332.557 651.283 326.493C647.206 323.648 642.133 322.472 637.165 323.22C632.197 323.968 627.735 326.579 624.745 330.487C621.755 334.395 620.479 339.285 621.194 344.097C621.909 348.909 624.557 353.254 628.564 356.19H628.573Z" fill="#6C63FF"/>
<path opacity="0.25" d="M704 94.3425C704 105.024 685.5 136 685.5 136C685.5 136 667 105.024 667 94.3425C667 89.2125 668.949 84.2927 672.419 80.6653C675.888 77.0378 680.593 75 685.5 75C690.407 75 695.112 77.0378 698.581 80.6653C702.051 84.2927 704 89.2125 704 94.3425Z" fill="black"/>
<path opacity="0.25" d="M736.744 151.684C730.662 160.602 696 176 696 176C696 176 696.628 139.697 702.711 130.779C704.158 128.659 706.03 126.83 708.222 125.397C710.414 123.964 712.882 122.954 715.486 122.426C718.089 121.897 720.776 121.86 723.395 122.317C726.013 122.774 728.511 123.716 730.746 125.088C732.98 126.461 734.908 128.238 736.419 130.317C737.93 132.397 738.994 134.738 739.551 137.208C740.108 139.677 740.147 142.227 739.666 144.711C739.184 147.195 738.191 149.564 736.744 151.684Z" fill="black"/>
<path opacity="0.25" d="M735.792 252.428C726.272 257.173 690 253.899 690 253.899C690 253.899 708.924 223.075 718.444 218.33C720.717 217.104 723.217 216.343 725.795 216.092C728.372 215.841 730.974 216.105 733.446 216.868C735.918 217.632 738.21 218.879 740.184 220.536C742.159 222.193 743.776 224.226 744.94 226.514C746.104 228.801 746.791 231.297 746.959 233.852C747.128 236.408 746.775 238.97 745.921 241.388C745.068 243.806 743.731 246.029 741.991 247.926C740.251 249.822 738.142 251.353 735.792 252.428Z" fill="black"/>
<path opacity="0.25" d="M716.862 328.055C708.294 334.212 672 337 672 337C672 337 685.371 304.06 693.93 297.903C695.962 296.379 698.286 295.265 700.766 294.626C703.247 293.987 705.834 293.835 708.375 294.18C710.916 294.525 713.362 295.359 715.567 296.634C717.773 297.909 719.695 299.598 721.221 301.604C722.746 303.61 723.845 305.892 724.452 308.316C725.059 310.739 725.163 313.257 724.757 315.72C724.351 318.183 723.444 320.543 722.088 322.661C720.732 324.779 718.956 326.613 716.862 328.055Z" fill="black"/>
<path opacity="0.25" d="M657.724 178.973C665.197 186.355 700 194 700 194C700 194 691.478 158.854 684.03 151.428C682.252 149.671 680.151 148.288 677.847 147.357C675.544 146.426 673.082 145.965 670.603 146.002C668.125 146.039 665.677 146.571 663.401 147.57C661.125 148.568 659.064 150.013 657.337 151.822C655.61 153.63 654.249 155.767 653.334 158.111C652.419 160.454 651.966 162.958 652.002 165.479C652.038 168 652.562 170.489 653.543 172.804C654.525 175.12 655.946 177.216 657.724 178.973Z" fill="black"/>
<path opacity="0.25" d="M636.844 268.414C646.439 273.185 683 269.893 683 269.893C683 269.893 663.961 238.9 654.374 234.129C652.09 232.969 649.594 232.266 647.033 232.062C644.472 231.858 641.895 232.156 639.45 232.94C637.006 233.723 634.744 234.976 632.793 236.626C630.843 238.276 629.243 240.291 628.085 242.554C626.928 244.817 626.237 247.284 626.051 249.812C625.865 252.34 626.189 254.879 627.003 257.283C627.817 259.688 629.106 261.909 630.795 263.819C632.484 265.73 634.54 267.291 636.844 268.414Z" fill="black"/>
<path opacity="0.25" d="M628.573 356.19C637.057 362.254 673 365 673 365C673 365 659.759 332.557 651.283 326.493C647.206 323.648 642.133 322.472 637.165 323.22C632.197 323.968 627.735 326.579 624.745 330.487C621.755 334.395 620.479 339.285 621.194 344.097C621.909 348.909 624.557 353.254 628.564 356.19H628.573Z" fill="black"/>
<g opacity="0.1">
<path opacity="0.1" d="M0.483997 561C10.0776 554.875 1.65943 559.866 0 560.846C0.153981 560.954 0.318522 561.006 0.483997 561Z" fill="#00FFFF"/>
</g>
<path d="M667.159 450.504C667.159 450.399 667.159 450.285 667.221 450.171C667.282 450.058 667.221 450.11 667.221 450.084C667.238 449.865 667.238 449.646 667.221 449.428C667.221 449.428 666.041 447.179 664.669 444.091C662.794 439.848 660.568 434.013 660.568 430.191C660.568 430.191 640.002 358.648 626.097 350.836C626.097 350.836 614.657 330.584 614.78 319.186C614.797 315.543 614.502 311.905 613.9 308.312C611.868 295.741 608.479 271.675 611.577 267.274C615.511 261.684 622.067 237.364 606.411 219.002L609.157 218.582C609.157 218.582 609.007 218.399 608.761 218.04L609.157 217.979C609.157 217.979 603.103 210.753 603.103 194.787C603.191 185.593 605.276 173.582 611.577 158.456C612.41 156.45 613.173 154.464 613.865 152.499C616.798 151.05 619.473 149.135 621.785 146.83L622.067 146.541L622.393 146.235C628.174 140.462 631.677 132.798 634.114 125.021C636.352 117.873 637.784 110.5 638.382 103.037C639.034 94.9276 638.69 86.7831 638.382 78.6561C637.986 69.1731 637.502 59.4102 633.683 50.7583C632.178 47.3728 630.163 44.171 629.239 40.5843C628.726 38.1217 628.37 35.6294 628.174 33.1221C626.916 23.298 622.234 13.7713 614.56 7.46388C606.887 1.15649 596.159 -1.65166 586.558 0.990268C581.067 2.50369 576.165 5.63553 571.598 9.06479C569.641 10.5306 567.794 12.1357 566.071 13.8675C560.554 19.2476 556.391 26.2986 560.387 33.7082C560.68 34.2448 560.994 34.7697 561.328 35.2829C559.218 38.6292 557.871 42.3941 557.382 46.3131C556.892 50.2322 557.271 54.2103 558.493 57.968C559.715 61.7257 561.75 65.1719 564.455 68.0643C567.16 70.9567 570.469 73.2253 574.15 74.7107L574.863 75.9529H574.942C577.028 79.7846 579.298 84.5698 579.896 88.2003C577.284 90.0504 574.918 92.2227 572.856 94.6652C565.737 103.107 561.839 108.837 559.709 112.573C557.695 116.034 555.359 119.3 552.73 122.327C549.501 126.123 545.69 133.533 545.69 147.32C545.69 148.329 545.69 149.376 545.69 150.461C528.644 168.91 462.168 155.386 462.168 155.386C454.16 152.289 444.84 156.024 440.475 158.22C440.119 158.395 439.806 158.647 439.561 158.958C439.316 159.269 439.145 159.631 439.061 160.017C438.976 160.403 438.98 160.803 439.073 161.187C439.165 161.571 439.344 161.93 439.595 162.236C446.635 170.669 463.954 165.612 463.954 165.612C463.954 165.612 526.242 176.434 531.082 180.038C534.373 182.496 540.19 180.493 543.569 178.962L542.874 179.741L543.754 179.312L538.967 222.116H539.037L538.967 222.72C538.967 222.72 540.076 222.624 541.845 222.501L543.323 226.307H543.2L544.731 229.911L545.989 232.877C542.232 246.384 527.087 301.987 528.679 314.68C528.679 314.68 518.999 337.522 522.634 350.154C522.634 350.154 509.328 445.141 500.862 449.953L502.05 450.486C493.012 455.621 473.326 465.279 459.739 460.774C459.739 460.774 451.273 463.18 464.579 471.595C464.579 471.595 519.008 486.021 526.268 481.218L525.063 460.424L525.679 460.643C525.767 459.471 526.559 450.871 529.903 446.952C529.903 446.952 551.674 388.033 550.469 357.975L570.788 309.16C572.988 314.759 575.32 319.509 577.679 322.51L586.145 344.153L600.058 362.191C600.058 362.191 643.601 430.724 640.539 451.169L641.559 451.422C637.485 458.631 627.347 473.406 612.712 473.406C612.712 473.406 600.014 486.633 623.598 484.831C623.598 484.831 653.228 483.029 675 471.001L667.159 450.504Z" fill="url(#paint0_linear)"/>
<path d="M513.815 446C513.815 446 486.541 463.77 469.496 458.215C469.496 458.215 461.539 460.436 474.04 468.21C474.04 468.21 525.184 481.54 532 477.091L530.285 448.22L513.815 446Z" fill="#333333"/>
<path d="M644.37 446.359C644.37 446.359 633.179 470.968 614.327 470.968C614.327 470.968 601.954 483.557 624.931 481.839C624.931 481.839 653.792 480.112 675 468.68L664.858 443L644.37 446.359Z" fill="#333333"/>
<path d="M545 224.241L549.539 236L579 233.89L575.986 214L545 224.241Z" fill="#FDB797"/>
<path d="M550.851 236C550.851 236 531.811 303.982 533.544 317.888C533.544 317.888 524.316 339.953 527.772 352.151C527.772 352.151 515.079 443.906 507 448.541C507 448.541 530.506 459.25 531.228 458.995C539.307 456.095 530.654 458.995 530.654 458.995C530.654 458.995 531.228 449.707 534.693 445.641C534.693 445.641 555.465 388.727 554.307 359.696L582 292.327L550.851 236Z" fill="#252A62"/>
<path opacity="0.1" d="M550.851 236C550.851 236 531.811 303.982 533.544 317.888C533.544 317.888 524.316 339.953 527.772 352.151C527.772 352.151 515.079 443.906 507 448.541C507 448.541 530.506 459.25 531.228 458.995C539.307 456.095 530.654 458.995 530.654 458.995C530.654 458.995 531.228 449.707 534.693 445.641C534.693 445.641 555.465 388.727 554.307 359.696L582 292.327L550.851 236Z" fill="black"/>
<path d="M548 232.055L560.769 262.264C560.769 262.264 570.639 311.647 581.086 325.007L589.214 345.924L602.569 363.361C602.569 363.361 644.361 429.593 641.453 449.344C641.453 449.344 667.569 456.357 666.991 447.591C666.991 447.591 660.606 435.388 660.606 428.997C660.606 428.997 640.875 359.863 627.52 352.306C627.52 352.306 616.555 332.73 616.66 321.72C616.666 318.194 616.373 314.675 615.784 311.2C613.831 299.049 610.582 275.8 613.56 271.548C617.624 265.736 624.586 239.015 604.855 221L548 232.055Z" fill="#252A62"/>
<path opacity="0.1" d="M666.99 447.62C666.99 447.62 660.655 435.416 660.655 429.024C660.655 429.024 641.077 359.881 627.826 352.324C627.826 352.324 616.946 332.745 617.051 321.733C617.056 318.207 616.766 314.687 616.182 311.211C614.244 299.059 611.02 275.807 613.974 271.555C618.006 265.742 624.915 239.018 605.337 221L602 221.658C620.718 239.658 613.931 265.812 609.951 271.555C605.971 277.298 613.427 318.62 613.427 318.62C610.551 328.502 623.794 352.324 623.794 352.324C637.037 359.881 656.623 429.024 656.623 429.024C656.623 435.416 662.958 447.62 662.958 447.62C663.149 450.496 660.447 451.662 656.745 451.934C662.324 452.259 667.251 451.469 666.99 447.62Z" fill="black"/>
<path d="M575 80.8623C575 80.8623 585.856 97.7601 583.002 103L611 95.9666C611 95.9666 603.567 87.8078 605.283 68L575 80.8623Z" fill="#FDB797"/>
<path opacity="0.1" d="M614.936 93.7084C614.936 93.7084 591.638 88.4863 576.864 106.398C570.175 114.492 566.514 119.993 564.508 123.579C562.617 126.899 560.424 130.031 557.956 132.935C554.261 137.365 549.733 146.913 551.86 166.382L545 228.673C545 228.673 564.893 226.932 570.004 228.673C575.115 230.414 610.923 224.635 610.923 224.635C610.923 224.635 596.714 207.332 613.195 166.957C629.676 126.581 614.936 93.7084 614.936 93.7084Z" fill="black"/>
<path d="M614.936 93.7084C614.936 93.7084 591.638 88.4863 576.864 106.398C570.175 114.492 566.514 119.993 564.508 123.579C562.617 126.899 560.424 130.031 557.956 132.935C554.261 137.365 549.733 146.913 551.86 166.382L545 228.673C545 228.673 564.893 226.932 570.004 228.673C575.115 230.414 610.923 224.635 610.923 224.635C610.923 224.635 596.714 207.332 613.195 166.957C629.676 126.581 614.936 93.7084 614.936 93.7084Z" fill="#F0898B"/>
<path opacity="0.1" d="M587 146C587 146 564.289 178.344 553.825 184.117L548 187C548 187 584.672 146 587 146Z" fill="black"/>
<path d="M566.48 128.844C566.48 128.844 581.377 122.885 587.766 142.64C588.026 143.442 588.07 144.299 587.895 145.125C587.719 145.95 587.33 146.712 586.767 147.333L551.96 185.507C551.96 185.507 542.084 191.412 537.439 187.867C532.795 184.322 472.978 173.697 472.978 173.697C472.978 173.697 456.371 178.658 449.589 170.383C449.344 170.087 449.168 169.737 449.075 169.361C448.983 168.985 448.975 168.593 449.054 168.214C449.132 167.834 449.295 167.478 449.529 167.172C449.762 166.866 450.062 166.618 450.404 166.447C453.646 164.781 459.053 165.743 465.433 164.942C470.33 164.347 475.286 164.452 480.155 165.253C500.073 168.424 547 173.661 554.282 154.218C563.571 129.44 566.48 128.844 566.48 128.844Z" fill="#FDB797"/>
<path opacity="0.1" d="M565 129.056C565 129.056 583.762 126.186 588 144V142.846C588 142.846 582.556 123.315 565 129.056Z" fill="black"/>
<path opacity="0.1" d="M605 70L575 82.4012C575 82.4012 576.356 84.4596 577.968 87.343C580.894 88.5168 584.937 87.7598 588.281 87.7598C595.105 87.7598 600.095 85.9651 604.676 81.5592C604.258 78.1739 604.548 74.6696 605 70Z" fill="black"/>
<path d="M587 88C601.359 88 613 76.1355 613 61.5C613 46.8644 601.359 35 587 35C572.641 35 561 46.8644 561 61.5C561 76.1355 572.641 88 587 88Z" fill="#FDB797"/>
<path opacity="0.1" d="M587.565 58.0235C588.133 60.0483 586.463 61.9235 585.257 63.6402C581.034 69.6531 581.812 77.8406 583.744 84.9364C584.688 88.4138 586.105 92.1114 589.191 93.9337C591.656 95.3863 594.689 95.3247 597.452 96.0554C602.426 97.3672 606.448 101.338 608.817 105.907C611.186 110.476 612.034 115.749 612.314 120.926C613.159 135.899 609.585 150.789 602.042 163.721C609.779 165.05 617.778 161.502 623.329 155.894C628.881 150.286 632.22 142.856 634.554 135.311C636.699 128.375 638.071 121.221 638.646 113.98C639.266 106.109 638.943 98.2035 638.646 90.3154C638.27 81.1155 637.833 71.6692 634.143 63.244C632.701 59.9515 630.778 56.8526 629.886 53.3663C629.394 50.9782 629.052 48.5612 628.863 46.1297C627.657 36.5953 623.172 27.3514 615.82 21.224C608.467 15.0966 598.195 12.4203 588.998 14.947C583.753 16.4172 579.05 19.4545 574.696 22.7823C567.65 28.1789 559.563 36.8682 564.537 46.112C568.865 54.2026 578.429 59.4673 587.565 58.0235Z" fill="black"/>
<path d="M587.582 57.7037C588.15 59.7151 586.481 61.5778 585.274 63.2831C581.052 69.2559 581.83 77.3888 583.762 84.4372C584.706 87.8915 586.122 91.5644 589.208 93.3746C591.673 94.8176 594.707 94.7563 597.47 95.4821C602.444 96.7851 606.465 100.729 608.835 105.268C611.204 109.806 612.052 115.045 612.331 120.187C613.176 135.071 609.596 149.872 602.042 162.723C609.779 164.043 617.778 160.519 623.329 154.948C628.881 149.378 632.22 141.997 634.554 134.502C636.699 127.613 638.071 120.506 638.646 113.313C639.266 105.495 638.943 97.6422 638.646 89.8066C638.27 80.6681 637.833 71.2847 634.143 62.9158C632.701 59.6451 630.778 56.5669 629.886 53.1039C629.394 50.7317 629.052 48.3308 628.863 45.9155C627.657 36.4446 623.172 27.2624 615.82 21.1758C608.467 15.0893 598.195 12.4308 588.998 14.9407C583.753 16.4011 579.05 19.4181 574.696 22.7237C567.65 28.0844 559.563 36.7157 564.537 45.898C568.891 53.9084 578.438 59.1379 587.582 57.7037Z" fill="#72351C"/>
<path opacity="0.1" d="M592 187C592 187 601.499 187 605 182L592 187Z" fill="black"/>
<path opacity="0.1" d="M592 191C592 191 601.499 191 605 186L592 191Z" fill="black"/>
<path opacity="0.1" d="M602 124C602 124 600.06 137.715 593 144L602 124Z" fill="black"/>
<path d="M436.451 164.224C432.013 162.063 422.541 158.371 414.402 161.425C414.402 161.425 336.345 176.858 326.505 151.923C326.043 150.757 325.596 149.634 325.163 148.555C325.36 146.921 325.445 145.275 325.417 143.629C325.451 141.605 325.307 139.582 324.987 137.583C324.473 134.658 323.346 131.874 321.681 129.412C319.745 126.174 318.16 122.74 316.954 119.167C315.06 114.017 312.093 109.327 308.248 105.406C304.404 101.485 299.769 98.4219 294.65 96.419C294.8 92.6919 297.439 87.1887 299.834 82.9104H299.913L300.641 81.6856C305.68 79.7707 310.022 76.3842 313.102 71.9685C316.181 67.5528 317.854 62.3132 317.901 56.9344C317.9 51.7517 316.346 46.6876 313.437 42.3934C321.69 41.0723 318.866 34.073 313.761 28.0712C312.771 26.9082 311.714 25.8039 310.595 24.764C305.611 19.8676 299.337 16.4819 292.502 15C291.686 14.825 290.862 14.6938 290.037 14.5801C285.127 12.8928 279.897 12.3429 274.743 12.972C269.588 13.6011 264.645 15.3927 260.288 18.2109C259.225 15.201 257.244 12.5983 254.624 10.7674C252.004 8.93647 248.875 7.96908 245.676 8.00075C237.186 8.00075 230.31 14.6413 230.31 22.8742C230.31 31.1071 237.186 37.7477 245.676 37.7477H246.553C245.985 40.0885 245.691 42.4872 245.676 44.8957C245.676 59.8741 256.315 72.4553 270.698 75.9724L270.953 76.2086C270.953 76.4536 270.909 76.7073 270.874 76.9523L270.935 77.0048C270.387 81.411 268.994 85.6706 266.831 89.551L266.287 89.4198C254.947 97.2939 250.842 109.236 250.938 121.678C250.877 132.247 253.806 143.305 257.955 152.299C259.478 155.896 260.231 159.77 260.165 163.673C259.946 177.147 253.727 193.315 249.5 202.782C247.825 206.535 223.54 265.119 223.54 265.119L224.092 264.979L223.54 266.309C228.854 264.821 234.555 265.504 239.397 266.807C242.73 267.68 246.204 267.883 249.616 267.402C253.028 266.921 256.31 265.767 259.27 264.008C259.921 266.821 261.038 269.506 262.577 271.952C265.725 276.327 262.287 300.054 260.218 312.469C259.611 316.018 259.318 319.613 259.341 323.213C259.455 334.473 247.843 354.473 247.843 354.473C233.705 362.19 212.805 432.83 212.805 432.83C212.805 436.61 210.542 442.367 208.639 446.558C207.253 449.611 206.007 451.807 206.007 451.807C205.989 452.022 205.989 452.239 206.007 452.454C206.007 452.454 206.007 452.516 206.007 452.542C206.022 452.654 206.043 452.765 206.069 452.874L198 473.181C220.128 485.053 250.246 486.838 250.246 486.838C274.215 488.588 261.314 475.561 261.314 475.561C246.404 475.561 236.143 460.967 231.994 453.854L233.038 453.601C229.968 433.416 274.259 365.742 274.259 365.742L288.397 347.929L297.001 326.468C299.395 323.51 301.772 318.821 304.017 313.291L324.663 361.464C323.435 391.15 345.563 449.322 345.563 449.322C348.992 453.189 349.764 461.685 349.852 462.84L350.474 462.63L349.247 483.164C356.622 487.914 411.947 473.662 411.947 473.662C425.471 465.351 416.867 462.98 416.867 462.98C403.062 467.424 383.048 457.888 373.891 452.822L375.093 452.297C366.489 447.546 352.965 353.756 352.965 353.756C356.658 341.288 346.826 318.76 346.826 318.76C347.948 310.098 340.88 281.007 335.179 259.546C342.497 259.484 349.794 258.74 356.973 257.323C356.517 257.035 356.096 256.729 355.631 256.449C356.508 256.282 356.973 256.177 356.973 256.177C337.976 244.06 327.154 203.132 322.479 179.947C323.648 180.937 324.908 181.816 326.242 182.571L332.381 185.537L331.679 184.776C335.109 186.29 341.02 188.276 344.37 185.835C349.29 182.274 412.596 171.591 412.596 171.591C412.596 171.591 430.136 176.587 437.355 168.258C437.624 167.956 437.817 167.595 437.918 167.204C438.02 166.814 438.027 166.404 437.939 166.01C437.85 165.616 437.669 165.249 437.411 164.938C437.152 164.628 436.823 164.383 436.451 164.224Z" fill="url(#paint1_linear)"/>
<path opacity="0.8" d="M280.5 84C297.897 84 312 69.8969 312 52.5C312 35.103 297.897 21 280.5 21C263.103 21 249 35.103 249 52.5C249 69.8969 263.103 84 280.5 84Z" fill="#FFC533"/>
<path d="M304 82.8623C304 82.8623 293.144 99.7601 295.998 105L268 97.9666C268 97.9666 275.433 89.8078 273.717 70L304 82.8623Z" fill="#FDB797"/>
<path opacity="0.1" d="M273 71L304 83.4012C304 83.4012 302.597 85.4596 300.928 88.343C297.901 89.5168 293.717 88.7598 290.257 88.7598C283.195 88.7598 278.031 86.9651 273.291 82.5591C273.733 79.1739 273.397 75.6696 273 71Z" fill="black"/>
<path d="M291.5 89C305.583 89 317 77.3594 317 63C317 48.6406 305.583 37 291.5 37C277.417 37 266 48.6406 266 63C266 77.3594 277.417 89 291.5 89Z" fill="#FDB797"/>
<path d="M250 44C257.732 44 264 37.7319 264 30C264 22.268 257.732 16 250 16C242.268 16 236 22.268 236 30C236 37.7319 242.268 44 250 44Z" fill="#FFC533"/>
<path opacity="0.1" d="M309.01 49.6511C302.71 49.5395 295.549 48.2519 290.828 52.4839C287.451 55.5228 286.539 60.433 285.39 64.8796C283.701 71.5582 279.834 78.8978 273.112 79.8936C269.007 80.503 264.878 78.4257 261.965 75.4212C259.051 72.4166 257.168 68.5537 255.386 64.768C253.604 60.9824 251.865 57.0422 252.008 52.8445C252.186 47.857 255.048 43.4018 257.97 39.4101C259.733 36.9034 261.696 34.5491 263.839 32.3709C267.149 29.1293 271.089 26.6276 275.407 25.0268C279.724 23.4259 284.324 22.7614 288.909 23.0759C293.494 23.3904 297.964 24.677 302.031 26.853C306.098 29.0289 309.672 32.046 312.523 35.7102C317.767 42.1742 320.376 49.8486 309.01 49.6511Z" fill="black"/>
<path d="M308.644 48.5862C302.053 48.4707 294.561 47.1379 289.623 51.5184C286.089 54.6639 285.134 59.7464 283.933 64.3491C282.166 71.262 278.12 78.8591 271.087 79.8898C266.793 80.5207 262.473 78.3704 259.425 75.2605C256.377 72.1505 254.407 68.1521 252.543 64.2336C250.678 60.3151 248.859 56.2366 249.009 51.8916C249.194 46.7292 252.189 42.1176 255.246 37.9858C257.09 35.3913 259.144 32.9543 261.386 30.6997C264.849 27.3443 268.971 24.7549 273.488 23.0979C278.005 21.4409 282.817 20.753 287.614 21.0786C292.412 21.4041 297.088 22.7359 301.343 24.9882C305.598 27.2404 309.337 30.3634 312.319 34.1562C317.797 40.847 320.536 48.7906 308.644 48.5862Z" fill="#FFC933"/>
<path d="M367.185 448C367.185 448 394.459 465.77 411.504 460.215C411.504 460.215 419.461 462.436 406.96 470.21C406.96 470.21 355.816 483.54 349 479.091L350.715 450.22L367.185 448Z" fill="#C17174"/>
<path d="M235.673 448.273C235.673 448.273 246.514 472.251 264.777 472.251C264.777 472.251 276.763 484.517 254.505 482.843C254.505 482.843 226.545 481.16 206 470.021L215.825 445L235.673 448.273Z" fill="#C17174"/>
<path d="M327.564 237C327.564 237 346.858 304.949 345.102 318.883C345.102 318.883 354.453 340.948 350.951 353.147C350.951 353.147 363.813 444.905 372 449.541C372 449.541 348.181 460.25 347.449 459.995C339.262 457.095 348.031 459.995 348.031 459.995C348.031 459.995 347.449 450.707 343.938 446.64C343.938 446.64 322.889 389.724 324.062 360.692L296 293.321L327.564 237Z" fill="#3AD29F"/>
<path opacity="0.1" d="M327.564 237C327.564 237 346.858 304.949 345.102 318.883C345.102 318.883 354.453 340.948 350.951 353.147C350.951 353.147 363.813 444.905 372 449.541C372 449.541 348.181 460.25 347.449 459.995C339.262 457.095 348.031 459.995 348.031 459.995C348.031 459.995 347.449 450.707 343.938 446.64C343.938 446.64 322.889 389.724 324.062 360.692L296 293.321L327.564 237Z" fill="black"/>
<path d="M330 234.016L317.445 264.095C317.445 264.095 307.74 313.263 297.467 326.566L289.476 347.392L276.353 364.745C276.353 364.745 235.26 430.69 238.119 450.356C238.119 450.356 212.441 457.338 213.009 448.61C213.009 448.61 219.287 436.459 219.287 430.096C219.287 430.096 238.688 361.262 251.82 353.738C251.82 353.738 262.601 334.247 262.497 323.284C262.492 319.774 262.78 316.27 263.359 312.809C265.279 300.711 268.474 277.563 265.546 273.329C261.55 267.542 254.704 240.937 274.105 223L330 234.016Z" fill="#3AD29F"/>
<path opacity="0.1" d="M213.012 448.631C213.012 448.631 219.444 436.479 219.444 430.116C219.444 430.116 239.323 361.275 252.778 353.75C252.778 353.75 263.824 334.257 263.718 323.293C263.712 319.783 264.008 316.278 264.601 312.818C266.568 300.718 269.842 277.568 266.842 273.334C262.748 267.546 255.734 240.939 275.612 223L279 223.655C259.933 241.585 266.833 267.669 270.874 273.343C274.915 279.017 267.345 320.203 267.345 320.203C270.265 330.041 256.819 353.759 256.819 353.759C243.372 361.284 223.485 430.124 223.485 430.124C223.485 436.488 217.053 448.64 217.053 448.64C216.859 451.503 219.603 452.664 223.362 452.934C217.724 453.257 212.721 452.472 213.012 448.631Z" fill="black"/>
<path opacity="0.1" d="M269.673 95.9999L291.431 101.303C297.505 102.791 303.108 105.754 307.735 109.926C312.363 114.097 315.868 119.345 317.934 125.195C319.077 128.678 320.584 132.034 322.43 135.207C324.021 137.628 325.091 140.348 325.575 143.197C326.459 148.877 326.388 158.075 320.381 168.507C320.381 168.507 330.284 242.169 356 258.989C356 258.989 330.902 264.713 308.905 257.633C294.161 252.889 277.985 254.885 265.353 263.846L264.805 264.24C261.88 266.405 258.498 267.885 254.913 268.569C251.328 269.252 247.633 269.122 244.106 268.187C239.495 266.918 234.062 266.253 229 267.706C229 267.706 252.137 210.479 253.736 206.804C259.125 194.385 267.959 170.161 261.775 156.386C253.179 137.211 250.034 108.795 269.673 95.9999Z" fill="black"/>
<path d="M269.673 93.9999L291.431 99.304C297.505 100.792 303.108 103.755 307.735 107.927C312.363 112.099 315.868 117.348 317.934 123.198C319.077 126.682 320.584 130.038 322.43 133.211C324.021 135.633 325.091 138.353 325.575 141.202C326.459 146.883 326.388 156.082 320.381 166.515C320.381 166.515 330.284 240.185 356 257.008C356 257.008 330.902 262.732 308.905 255.651C294.161 250.907 277.985 252.903 265.353 261.865L264.805 262.259C261.878 264.42 258.495 265.895 254.91 266.574C251.325 267.253 247.631 267.119 244.106 266.18C239.495 264.911 234.062 264.246 229 265.699C229 265.699 252.137 208.466 253.736 204.79C259.125 192.361 267.959 168.134 261.775 154.323C253.179 135.181 250.034 107.925 269.673 93.9999Z" fill="#535461"/>
<path opacity="0.1" d="M293 148C293 148 315.701 180.338 326.178 186.116L332 189C332 189 295.327 148 293 148Z" fill="black"/>
<path d="M314.37 129.857C314.37 129.857 299.577 123.802 293.233 143.877C292.974 144.692 292.93 145.564 293.105 146.403C293.279 147.242 293.666 148.016 294.225 148.647L328.79 187.45C328.79 187.45 338.597 193.451 343.209 189.848C347.821 186.246 407.222 175.448 407.222 175.448C407.222 175.448 423.599 180.453 430.378 172.162C430.629 171.86 430.812 171.502 430.912 171.116C431.012 170.729 431.027 170.325 430.956 169.932C430.885 169.538 430.73 169.167 430.501 168.845C430.273 168.523 429.978 168.258 429.638 168.071C426.062 166.198 419.518 166.261 412.478 165.637C410.043 165.418 407.591 165.534 405.185 165.981C390.131 168.759 334.437 177.394 326.483 155.653C317.259 130.455 314.37 129.857 314.37 129.857Z" fill="#FDB797"/>
<path opacity="0.1" d="M314 130.125C314 130.125 296.87 127.075 293 146V144.775C293 144.775 297.971 124.016 314 130.125Z" fill="black"/>
<path d="M429.926 443C429.926 443 417.391 396.318 432.313 361.956C438.635 347.591 440.542 331.364 437.745 315.71C436.363 308.288 434.363 301.021 431.772 294" stroke="#535461" stroke-width="2" stroke-miterlimit="10"/>
<path d="M443.991 272.148C443.991 277.754 432.995 294 432.995 294C432.995 294 422 277.763 422 272.148C422 270.816 422.285 269.496 422.837 268.265C423.39 267.033 424.2 265.915 425.222 264.972C426.243 264.03 427.456 263.282 428.79 262.772C430.125 262.262 431.555 262 433 262C434.445 262 435.875 262.262 437.21 262.772C438.544 263.282 439.757 264.03 440.778 264.972C441.8 265.915 442.61 267.033 443.163 268.265C443.715 269.496 444 270.816 444 272.148H443.991Z" fill="#6C63FF"/>
<path d="M459.371 303.502C456.332 308.451 439 317 439 317C439 317 439.316 296.834 442.355 291.876C443.079 290.698 444.016 289.682 445.112 288.886C446.208 288.09 447.442 287.529 448.744 287.236C450.046 286.943 451.39 286.923 452.699 287.177C454.008 287.431 455.257 287.954 456.374 288.717C457.492 289.48 458.455 290.467 459.211 291.623C459.966 292.778 460.498 294.079 460.776 295.451C461.054 296.823 461.073 298.239 460.832 299.619C460.591 300.999 460.095 302.315 459.371 303.493V303.502Z" fill="#6C63FF"/>
<path d="M459.171 358.59C453.945 361.204 434 359.383 434 359.383C434 359.383 444.388 342.687 449.622 340.108C450.866 339.496 452.22 339.13 453.609 339.029C454.998 338.928 456.393 339.095 457.715 339.52C459.038 339.945 460.262 340.62 461.317 341.507C462.372 342.393 463.237 343.474 463.864 344.687C464.491 345.9 464.867 347.222 464.971 348.576C465.074 349.931 464.903 351.292 464.467 352.582C464.031 353.873 463.339 355.066 462.43 356.096C461.522 357.125 460.414 357.97 459.171 358.581V358.59Z" fill="#6C63FF"/>
<path d="M449.697 399.774C444.985 403.375 425 405 425 405C425 405 432.359 385.75 437.071 382.149C438.192 381.293 439.465 380.673 440.818 380.325C442.171 379.977 443.577 379.908 444.955 380.121C446.334 380.334 447.659 380.825 448.854 381.567C450.048 382.308 451.09 383.286 451.919 384.443C452.748 385.6 453.348 386.915 453.685 388.312C454.022 389.709 454.089 391.16 453.883 392.584C453.677 394.007 453.201 395.375 452.483 396.609C451.764 397.843 450.818 398.918 449.697 399.774Z" fill="#6C63FF"/>
<path d="M415.444 318.627C419.603 322.741 439 327 439 327C439 327 434.248 307.4 430.089 303.294C429.113 302.258 427.943 301.432 426.647 300.866C425.351 300.301 423.956 300.006 422.546 300C421.136 299.994 419.739 300.278 418.439 300.833C417.138 301.388 415.961 302.204 414.978 303.232C413.994 304.26 413.224 305.479 412.713 306.817C412.202 308.154 411.962 309.583 412.005 311.017C412.048 312.451 412.375 313.861 412.966 315.164C413.557 316.467 414.4 317.635 415.444 318.6V318.627Z" fill="#6C63FF"/>
<path d="M405.8 365.589C411.032 368.204 431 366.383 431 366.383C431 366.383 420.591 349.68 415.396 347.108C414.151 346.496 412.795 346.13 411.404 346.029C410.014 345.928 408.617 346.095 407.293 346.52C405.969 346.945 404.744 347.621 403.688 348.508C402.631 349.395 401.765 350.476 401.137 351.689C400.509 352.903 400.133 354.225 400.029 355.58C399.926 356.935 400.097 358.297 400.533 359.588C400.97 360.879 401.663 362.073 402.573 363.103C403.482 364.132 404.591 364.977 405.836 365.589H405.8Z" fill="#6C63FF"/>
<path d="M402.006 415.192C406.394 418.505 425 420 425 420C425 420 418.149 402.29 413.761 398.977C411.654 397.386 409.013 396.715 406.421 397.111C403.828 397.507 401.496 398.937 399.938 401.088C398.379 403.238 397.721 405.932 398.109 408.577C398.497 411.222 399.899 413.602 402.006 415.192Z" fill="#6C63FF"/>
<path opacity="0.5" d="M443.991 272.148C443.991 277.754 432.995 294 432.995 294C432.995 294 422 277.763 422 272.148C422 270.816 422.285 269.496 422.837 268.265C423.39 267.033 424.2 265.915 425.222 264.972C426.243 264.03 427.456 263.282 428.79 262.772C430.125 262.262 431.555 262 433 262C434.445 262 435.875 262.262 437.21 262.772C438.544 263.282 439.757 264.03 440.778 264.972C441.8 265.915 442.61 267.033 443.163 268.265C443.715 269.496 444 270.816 444 272.148H443.991Z" fill="white"/>
<path opacity="0.5" d="M459.371 303.502C456.332 308.451 439 317 439 317C439 317 439.316 296.834 442.355 291.876C443.079 290.698 444.016 289.682 445.112 288.886C446.208 288.09 447.442 287.529 448.744 287.236C450.046 286.943 451.39 286.923 452.699 287.177C454.008 287.431 455.257 287.954 456.374 288.717C457.492 289.48 458.455 290.467 459.211 291.623C459.966 292.778 460.498 294.079 460.776 295.451C461.054 296.823 461.073 298.239 460.832 299.619C460.591 300.999 460.095 302.315 459.371 303.493V303.502Z" fill="white"/>
<path opacity="0.5" d="M459.171 358.59C453.945 361.204 434 359.383 434 359.383C434 359.383 444.388 342.687 449.622 340.108C450.866 339.496 452.22 339.13 453.609 339.029C454.998 338.928 456.393 339.095 457.715 339.52C459.038 339.945 460.262 340.62 461.317 341.507C462.372 342.393 463.237 343.474 463.864 344.687C464.491 345.9 464.867 347.222 464.971 348.576C465.074 349.931 464.903 351.292 464.467 352.582C464.031 353.873 463.339 355.066 462.43 356.096C461.522 357.125 460.414 357.97 459.171 358.581V358.59Z" fill="white"/>
<path opacity="0.5" d="M449.697 399.774C444.985 403.375 425 405 425 405C425 405 432.359 385.75 437.071 382.149C438.192 381.293 439.465 380.673 440.818 380.325C442.171 379.977 443.577 379.908 444.955 380.121C446.334 380.334 447.659 380.825 448.854 381.567C450.048 382.308 451.09 383.286 451.919 384.443C452.748 385.6 453.348 386.915 453.685 388.312C454.022 389.709 454.089 391.16 453.883 392.584C453.677 394.007 453.201 395.375 452.483 396.609C451.764 397.843 450.818 398.918 449.697 399.774Z" fill="white"/>
<path opacity="0.5" d="M415.444 318.627C419.603 322.741 439 327 439 327C439 327 434.248 307.4 430.089 303.294C429.113 302.258 427.943 301.432 426.647 300.866C425.351 300.301 423.956 300.006 422.546 300C421.136 299.994 419.739 300.278 418.439 300.833C417.138 301.388 415.961 302.204 414.978 303.232C413.994 304.26 413.224 305.479 412.713 306.817C412.202 308.154 411.962 309.583 412.005 311.017C412.048 312.451 412.375 313.861 412.966 315.164C413.557 316.467 414.4 317.635 415.444 318.6V318.627Z" fill="white"/>
<path opacity="0.5" d="M405.8 365.589C411.032 368.204 431 366.383 431 366.383C431 366.383 420.591 349.68 415.396 347.108C414.151 346.496 412.795 346.13 411.404 346.029C410.014 345.928 408.617 346.095 407.293 346.52C405.969 346.945 404.744 347.621 403.688 348.508C402.631 349.395 401.765 350.476 401.137 351.689C400.509 352.903 400.133 354.225 400.029 355.58C399.926 356.935 400.097 358.297 400.533 359.588C400.97 360.879 401.663 362.073 402.573 363.103C403.482 364.132 404.591 364.977 405.836 365.589H405.8Z" fill="white"/>
<path opacity="0.5" d="M402.006 415.192C406.394 418.505 425 420 425 420C425 420 418.149 402.29 413.761 398.977C411.654 397.386 409.013 396.715 406.421 397.111C403.828 397.507 401.496 398.937 399.938 401.088C398.379 403.238 397.721 405.932 398.109 408.577C398.497 411.222 399.899 413.602 402.006 415.192Z" fill="white"/>
<g style="mix-blend-mode:screen" opacity="0.5">
<path d="M437.5 166C472.018 166 500 138.018 500 103.5C500 68.9822 472.018 41 437.5 41C402.982 41 375 68.9822 375 103.5C375 138.018 402.982 166 437.5 166Z" fill="#1C2A63"/>
</g>
<path d="M438.738 120.367C438.738 120.367 451.957 123.608 462.436 115.419C472.915 107.23 472.572 94.8624 472.572 94.8624C472.572 94.8624 460.723 91.1892 449.961 99.0041C439.199 106.819 438.738 120.367 438.738 120.367Z" fill="white"/>
<path d="M438.738 125.964C438.738 125.964 440.863 135.091 449.224 138.963C457.586 142.834 465.146 138.776 465.146 138.776C465.146 138.776 463.717 130.355 455.502 126.185C447.287 122.015 438.738 125.964 438.738 125.964Z" fill="white"/>
<path d="M458.544 121.971C458.544 121.971 463.153 127.169 469.881 126.697C476.608 126.225 480 120.863 480 120.863C480 120.863 476.088 115.874 469.343 116.098C462.598 116.323 458.544 121.971 458.544 121.971Z" fill="white"/>
<path d="M451.942 90.7397C451.942 90.7397 444.887 79.3698 431.643 77.8196C418.399 76.2695 409.854 85.0604 409.854 85.0604C409.854 85.0604 415.633 95.7846 428.808 97.799C441.982 99.8135 451.942 90.7397 451.942 90.7397Z" fill="white"/>
<path d="M456.445 86.6363C456.445 86.6363 461.51 78.3975 458.307 69.4611C455.104 60.5247 446.747 58 446.747 58C446.747 58 441.691 65.2202 444.582 74.2675C447.472 83.3149 456.445 86.6363 456.445 86.6363Z" fill="white"/>
<path d="M439.558 75.076C439.558 75.076 439.914 68.1773 434.929 63.7397C429.945 59.3021 423.918 60.6456 423.918 60.6456C423.918 60.6456 423.222 66.9021 428.05 71.5209C432.879 76.1398 439.558 75.076 439.558 75.076Z" fill="white"/>
<path d="M427.197 106.273C427.197 106.273 415.729 113.268 414.165 126.397C412.602 139.525 421.469 148 421.469 148C421.469 148 432.285 142.271 434.317 129.209C436.349 116.146 427.197 106.273 427.197 106.273Z" fill="white"/>
<path d="M423.058 101.809C423.058 101.809 414.983 96.7875 406.232 99.9601C397.482 103.133 395 111.419 395 111.419C395 111.419 402.07 116.432 410.926 113.574C419.782 110.716 423.058 101.809 423.058 101.809Z" fill="white"/>
<path d="M412.223 118.551C412.223 118.551 405.265 118.197 400.789 123.14C396.313 128.083 397.668 134.056 397.668 134.056C397.668 134.056 403.979 134.747 408.638 129.959C413.296 125.172 412.223 118.551 412.223 118.551Z" fill="white"/>
<defs>
<linearGradient id="paint0_linear" x1="557.086" y1="485.067" x2="557.086" y2="-0.0157577" gradientUnits="userSpaceOnUse">
<stop stop-color="#808080" stop-opacity="0.25"/>
<stop offset="0.54" stop-color="#808080" stop-opacity="0.12"/>
<stop offset="1" stop-color="#808080" stop-opacity="0.1"/>
</linearGradient>
<linearGradient id="paint1_linear" x1="115079" y1="358961" x2="115079" y2="96746.8" gradientUnits="userSpaceOnUse">
<stop stop-color="#808080" stop-opacity="0.25"/>
<stop offset="0.54" stop-color="#808080" stop-opacity="0.12"/>
<stop offset="1" stop-color="#808080" stop-opacity="0.1"/>
</linearGradient>
</defs>
</svg>
