<svg width="16" height="21" viewBox="0 0 16 21" fill="none" xmlns="http://www.w3.org/2000/svg">
<path fill-rule="evenodd" clip-rule="evenodd" d="M11.874 5C11.43 3.27478 9.86383 2 8 2C5.79086 2 4 3.79086 4 6V9H12H14H15C15.5523 9 16 9.44772 16 10V20C16 20.5523 15.5523 21 15 21H1C0.447723 21 0 20.5523 0 20V10C0 9.44772 0.447723 9 1 9H2V6C2 2.68628 4.68628 0 8 0C10.973 0 13.441 2.16229 13.9171 5H12H11.874ZM10 13C10 13.7532 9.58368 14.4091 8.96857 14.7502C8.98911 14.8301 9 14.9138 9 15V18C9 18.5523 8.55228 19 8 19C7.44772 19 7 18.5523 7 18V15C7 14.9138 7.01089 14.8301 7.03143 14.7502C6.41632 14.4091 6 13.7532 6 13C6 11.8954 6.89542 11 8 11C9.10458 11 10 11.8954 10 13Z" fill="black"/>
</svg>
