<svg width="72" height="48" viewBox="0 0 72 48" fill="none" xmlns="http://www.w3.org/2000/svg">
<path fill-rule="evenodd" clip-rule="evenodd" d="M4 0C1.79083 0 0 1.79086 0 4V44C0 46.2091 1.79083 48 4 48H63C65.2092 48 67 46.2091 67 44V33H59C54.5817 33 51 29.4183 51 25V23C51 18.5817 54.5817 15 59 15H67V4C67 1.79086 65.2092 0 63 0H4Z" fill="black"/>
<path fill-rule="evenodd" clip-rule="evenodd" d="M58.9998 18C55.6861 18 52.9998 20.6863 52.9998 24C52.9998 27.3137 55.6861 30 58.9998 30H70.9998C71.5521 30 71.9998 29.5523 71.9998 29V19C71.9998 18.4477 71.5521 18 70.9998 18H58.9998ZM57.9998 27C59.6567 27 60.9998 25.6569 60.9998 24C60.9998 22.3431 59.6567 21 57.9998 21C56.343 21 54.9998 22.3431 54.9998 24C54.9998 25.6569 56.343 27 57.9998 27Z" fill="black"/>
<path d="M15 24.6C16.0485 21.5455 18.6699 20.7818 20.9417 22.3091C19.7184 25.1727 17.4466 25.7455 15 24.6Z" fill="white"/>
<path d="M26.0097 12C28.6938 13.8718 29.1202 15.3044 28.1068 18.4909C25.4854 16.9636 24.9611 15.0545 26.0097 12Z" fill="white"/>
<path d="M24.4369 16.0091C24.0599 13.5763 23.3331 12.8236 21.1165 12.5727C21.3719 14.8401 22.0991 15.5923 24.4369 16.0091Z" fill="white"/>
<path d="M28.6311 26.8909C30.4205 25.4263 31.4272 25.3636 33 26.8128C31.2538 28.3375 30.0291 28.4182 28.6311 26.8909Z" fill="white"/>
<path d="M24.2621 26.5091C25.1359 21.7364 27.233 20.0182 31.4272 20.5909C30.7857 25.3678 28.1068 26.8128 24.2621 26.5091Z" fill="white"/>
<path d="M27.0583 19.6364C24.4369 16.0091 21.9903 15.6273 18.1456 18.1091C20.4175 21.5455 23.3883 22.1182 27.0583 19.6364Z" fill="white"/>
<path d="M15.4971 29.9455C15.75 27.6384 16.3799 26.7488 18.6699 26.1273C18.4443 28.7291 17.7188 29.5336 15.4971 29.9455Z" fill="white"/>
<path d="M21.8155 23.2636C24.9612 27.4636 23.3883 31.0909 20.7669 33C18.1455 29.9455 18.4952 26.5091 21.8155 23.2636Z" fill="white"/>
<path d="M24.2621 28.0364C26.534 26.8909 29.1553 27.8455 30.0291 30.9C27.7573 32.0455 25.4854 31.2818 24.2621 28.0364Z" fill="white"/>
</svg>
