<svg width="16" height="16" viewBox="0 0 16 16" fill="none" xmlns="http://www.w3.org/2000/svg">
<path d="M14 3.99999H1.5V3.49999L12.5 2.61999V3.49999H14V1.99999C14 0.899986 13.109 0.127986 12.021 0.282986L1.98 1.71699C0.891 1.87299 0 2.89999 0 3.99999V14C0 15.104 0.895 16 2 16H14C15.104 16 16 15.104 16 14V5.99999C16 4.89599 15.104 3.99999 14 3.99999ZM12.5 11.006C11.672 11.006 11 10.334 11 9.50599C11 8.67799 11.672 8.00599 12.5 8.00599C13.328 8.00599 14 8.67799 14 9.50599C14 10.334 13.328 11.006 12.5 11.006Z" fill="#646B83"/>
</svg>
